<svg width="39" height="39" viewBox="0 0 39 39" fill="none" xmlns="http://www.w3.org/2000/svg">
<g clip-path="url(#clip0_32_21)">
<path fill-rule="evenodd" clip-rule="evenodd" d="M13.3977 24.3787C14.0693 24.3787 14.6122 24.9228 14.6122 25.5931C14.6122 26.2635 14.0686 26.807 13.3977 26.807C12.7274 26.807 12.1838 26.2635 12.1838 25.5931C12.1838 24.9228 12.728 24.3787 13.3977 24.3787ZM9.83836 20.901C9.06994 15.5695 12.7695 10.6257 18.1009 9.85725C23.4323 9.08883 28.3768 12.7883 29.1452 18.1198C29.9136 23.4512 26.2141 28.3957 20.8827 29.1641C20.823 29.1732 20.7657 29.1732 20.7066 29.1799L20.8869 29.1549C20.2203 29.2506 19.6036 28.7881 19.5067 28.122C19.411 27.456 19.8735 26.8375 20.5396 26.7406L20.5378 26.7363C20.5396 26.7363 20.5408 26.7363 20.5426 26.7363C24.5401 26.1605 27.3122 22.4536 26.7363 18.4561C26.1605 14.458 22.4543 11.686 18.4561 12.2618C14.4605 12.8377 11.686 16.5445 12.2625 20.542C12.2625 20.5439 12.2625 20.5451 12.2637 20.5451L12.2594 20.5469C12.3551 21.213 11.8926 21.8302 11.2265 21.9265C10.5605 22.0222 9.94195 21.5603 9.84506 20.8942L9.87188 21.0758C9.86334 21.0161 9.84689 20.9601 9.83836 20.901ZM29.2433 7.92492C29.2433 6.91458 30.0635 6.09436 31.0751 6.09436C32.0757 6.09436 32.8867 6.89752 32.9026 7.89689V7.95417C32.8867 8.95355 32.0757 9.7567 31.0751 9.7567C30.0635 9.7567 29.2433 8.93648 29.2433 7.92492ZM35.7465 35.6606C33.6271 37.802 30.6863 39 25.6011 39H13.3977C8.31248 39 5.37225 37.802 3.25406 35.6606C1.16269 33.5485 0 30.6004 0 25.6023V13.3989C0 8.39902 1.16269 5.45269 3.25406 3.34059C5.37225 1.19864 8.31248 0 13.3977 0H25.6005C30.6863 0 33.6265 1.19864 35.7459 3.34059C35.8818 3.47648 36.0061 3.62578 36.1317 3.77325C36.3888 3.99628 36.5552 4.32291 36.5552 4.69036C36.5552 5.36372 36.0098 5.90911 35.3364 5.90911C34.9684 5.90911 34.6418 5.74214 34.4187 5.48377L34.4029 5.49656C34.2773 5.34727 34.1597 5.19248 34.0208 5.05294C32.1671 3.1785 29.4304 2.44298 24.9795 2.44298H14.0138C9.56414 2.44298 6.83292 3.1785 4.9792 5.05294C3.14925 6.90117 2.4375 9.64519 2.4375 14.0187V24.9856C2.4375 29.3609 3.14925 32.0976 4.9792 33.9452C6.83292 35.8191 9.56414 36.5625 14.0138 36.5625H24.9807C29.4316 36.5625 32.1683 35.8191 34.022 33.9452C35.852 32.0976 36.5564 29.3609 36.5564 24.9856V14.0193C36.5564 12.9541 36.5125 11.9882 36.4236 11.1065L36.429 11.1053C36.3632 10.4331 36.8501 9.83227 37.5235 9.76097C38.1981 9.6915 38.8032 10.1814 38.872 10.8548C38.8739 10.8725 38.872 10.8889 38.872 10.9066H38.8751C38.9488 11.6829 39 12.4965 39 13.3989V25.6017C39 30.6004 37.8361 33.5485 35.7465 35.6606Z" fill="#3E3E3E"/>
</g>
<defs>
<clipPath id="clip0_32_21">
<rect width="39" height="39" fill="white"/>
</clipPath>
</defs>
</svg>
