<?xml version="1.0" encoding="UTF-8"?>
<svg id="Capa_2" data-name="Capa 2" xmlns="http://www.w3.org/2000/svg" viewBox="0 0 2074.19 1355.29">
  <defs>
    <style>
      .cls-1 {
        fill: #d8d8d8;
      }
    </style>
  </defs>
  <g id="Capa_2-2" data-name="Capa 2">
    <path class="cls-1" d="m1059.34,1075.55c.5-.17-169.31-63.71-166.01-62.8-1.33-.36-4.31-.92-5.76-1.21-29.74-5.22-61.95-3.84-89.76,8.19-33.45,14.25-67.92,52.01-57.44,90.59,7.67,28.32,37.45,52.17,67.13,48.8,14.38-1.89,25.19-13.35,31.08-25.99,6.36-14.09,7.18-30.23,6.42-45.83-1.83-33.76-10.72-67.09-13.05-101.15-1.77-27.77,7.69-55.9,24.34-77.83,24.72-32.93,63.26-52.72,102.98-60.3,7.7-1.37,17.75-2.86,25.52-3.98,20.43-3.39,41.24-7.72,61.08-13.49,113.93-31.64,208.93-109.65,252.27-220.85,17.9-46.29,24.93-96.49,23.43-145.98-1.1-33.5-6.64-66.38-13.76-99.2-5.25-24.97-11.74-50.29-14.56-76.02-3.56-28.38.84-56.87,23.34-76.73,13.49-11.92,30.33-18.76,47.9-21.32.6-.08,1.11-.14,1.85-.21,0,0-4.08,8.35-4.08,8.35-32.46-51.99-5.34-82.96,50.52-88.3,2.84-.23,5.57-.48,8.51-.51,0,0-4.34,8.82-4.34,8.82-21.88-29.74-57.37-42.55-93.54-40.35-14.42.68-28.77,3.3-42.65,7.3-5.21,1.51-10.37,3.22-15.42,5.16-1.72.68-3.45,1.36-4.98,2.05-2.98,1.36-6.54-.32-7.42-3.46-1.2-4.91-.92-8.74-.21-13.3,1.93-11.31,5.85-21.95,9.93-32.45,5.48-13.77,11.57-27.06,18.22-40.31,0,0,4.4,7.98,4.4,7.98-12.22-1.1-24.33,1.75-35.26,7.33-22.52,11.66-39.72,32-53.74,52.98-7.04,10.73-13.58,22.17-18.89,33.83-2.35,9.99-59.84-4.23-69.13-6.32-6.95-1.67-13.84-3.4-20.79-5.28,0,0,6.83-6.45,6.83-6.45,18.32,89.13,64.4,185.9,164.27,199.59,45.83,6.56,92.85-3.98,135.16-21.85,8.45-3.63,16.87-7.57,24.85-12.06,0,0-1.09,8.66-1.09,8.66-57.65-58.64-140.2-90.99-222.42-84-27.05,2.06-54.18,7.2-79.52,17-206.94,68.27-286.52,306.17-320.76,501.62-5.33,31.04-9.35,62.21-13.05,93.52-1.39,11.06-2.91,21.65-7.29,32.22-5.13,12.27-13.93,16.98-27.28,15.78-6.76-.4-13.63-.94-20.31-2.23-55.21-9.36-83.86-51.18-89.62-104.53-2.27-20.15-1.69-40.47,1.32-60.48.22-1.36.43-2.64.71-4.12,0,0,10.73,2.48,10.7,2.51-11.25,47.16-41.32,82.08-92.23,84.04-27.04.91-53.71-5.94-77.73-18.23-21.41-14.11-41.31-31.69-53.81-54.55-27.62-50.08-4.78-103.13,26.94-144.71,63.62-77.49,178.72-106.55,275.21-91.8,19.88,3.3,68.44,14.52,58.63,43.22-1.87,4.5-4.42,7.25-7.59,10.2-5.51,5.17-11.48,9.88-17.75,14.1-35.62,24.23-81.38,31.1-123.06,21.98-24.89-5.21-48.29-15.25-69.98-28.17-20.58-12.79-41.39-26-62.41-38.01-121.73-70.05-321.01-159.75-448.1-62.32-14.97,12.09-28.07,26.57-37.06,43.43-.85,1.64-1.65,3.29-2.34,4.91-.68,1.58-1.29,3.28-1.56,4.41-.06.24-.1.49-.08.38,0-.06.03-.18,0-.75-.03-.32-.05-.7-.31-1.6-.28-.68-.74-2.56-3.44-4.35-4.27-1.85-1.49-.6-2.21-.96,0,0,.21.03.21.03,2.23.39,4.62.51,7.09.67,20.02.86,40.15.39,60.33,0,16.2-.37,32.44-.88,48.62-1.55,8.64-.34,12.69,10.47,6.33,15.92-6.15,4.94-12.44,12.42-17.54,19.05-27.66,36.53-51.2,76.28-74.71,115.66-9.36,15.9-18.62,31.92-27.65,47.98,0,0-9.1-6.09-9.1-6.09,17.87-21.75,49.96-36.3,75.23-47.66,20.18-8.72,40.71-16.3,61.53-23.22,7.06-2.32,13.85-4.51,21.03-6.62,7.86-2.45,15.54,5.22,13.28,13.01-10.01,31.13-17.11,63.55-19.93,96.1-2.47,31.14-1.43,64.73,13.11,92.51,0,0-7.32-4.46-7.32-4.46.28.02.8.04,1.22.06,0,0,1.36.04,1.36.04,44.08.23,90.52-13.24,121.81-45.57,10.71-11.05,19.19-24.04,25.46-38.12.57-1.26,2.05-1.83,3.31-1.26,1.21.54,1.77,1.93,1.32,3.16-10.95,30.6-33.27,56.51-61.38,72.76-27.37,15.93-58.77,24.41-90.3,26.18,0,0-1.59.06-1.59.06-.56.01-1.03.03-1.73.03-3.17-.07-5.9-1.86-7.32-4.46-31.15-55.75-16.23-144.22,1.11-202.97,0,0,13.02,13.95,13.02,13.95-3.33.76-6.85,1.61-10.29,2.47-37.77,9.69-75.7,20.92-110.8,37.94-6.27,3.14-12.42,6.5-18.18,10.27-5.73,3.77-11.17,7.95-15.45,12.75-1.95,2.34-5.42,2.65-7.75.7-2.03-1.69-2.53-4.55-1.34-6.79,25.95-49.38,52.45-98.29,82.37-145.46,7.72-11.88,15.56-23.76,24.68-34.81,3.19-3.77,6.42-7.5,10.92-11.2,0,0,5.91,16.28,5.91,16.28-36.9.61-73.57,1.92-110.54.42-3.26-.22-6.76-.44-10.12-1.16-.96-.42,1.55.83-2.94-1.15-2.92-1.93-3.51-4.06-3.85-4.97-.35-1.14-.4-1.78-.45-2.35-.07-1.08,0-1.71.05-2.27.12-1.12.3-1.87.47-2.61,1.36-5.03,3.16-8.84,5.4-13.18,18.52-34.06,50.24-59.4,85.27-74.73,108.69-45.46,234.38-4.38,335.79,42.36,44.51,20.88,87.33,44.94,129,70.91,3.72,2.38,11.97,7.5,15.48,9.74,47.22,30.14,108.23,44.55,160.82,20.18,12.18-5.54,23.52-12.89,33.43-21.87,1.27-1.19,2.65-2.43,3.86-3.69,1.12-1.37,1.95-2.29,1.77-3.57-.65-1.91-2.18-3.21-3.99-4.66-2.44-1.86-5.54-3.56-8.84-5.03-17.66-7.52-37.3-10.14-56.46-11.53-84.31-4.55-175.78,20.95-232.72,85.97-34.86,44.32-56.83,98.29-15.48,146.45,8.54,11.08,24.9,23.71,34.16,30.2,13.99,7.44,29.74,12.72,45.4,15.55,55.49,9.95,91.2-17.61,105.87-70.42.8-2.95,3.86-4.69,6.8-3.86,2.77.78,4.44,3.57,3.91,6.34-.22,1.11-.44,2.42-.63,3.66-.59,3.79-1.06,7.6-1.44,11.43-1.49,15.29-1.57,30.85.18,46.08,3.9,36.48,20.31,72.18,55.53,87.42,12.65,5.63,26.38,8.43,40.17,9.39,9.99.57,16.14,1.71,20.49-8.96,3.71-8.94,5.27-19.44,6.46-29.18,1.27-10.4,2.5-20.89,3.84-31.35,28.66-218.63,107.91-498.02,339.23-573.62,79.05-28.47,170.7-22.68,244.02,19.11,24.72,13.9,47.24,31.45,67.34,51.27,2.15,2.12,2.17,5.58.05,7.73-2.37,1.92-5.13,2.98-7.66,4.41-2.15,1.11-4.3,2.18-6.47,3.22-141.41,65.54-261.53,27.64-312.54-124.36-6.19-18.12-11.09-36.61-15.08-55.25-.98-3.87,3.03-7.64,6.83-6.45,13.52,3.63,27.3,6.95,41.02,9.78,6.87,1.4,13.75,2.67,20.6,3.64,6.38.7,13.49,1.84,19.55,1.01,0,0-4.17,3.23-4.17,3.23,2.88-6.34,5.88-12.1,9.23-18.1,9.96-17.65,21.49-34.32,35.68-49,16.58-17.18,38.54-32.13,63.26-33.58,3.57-.21,7.16-.16,10.72.14,3.76.27,6.23,4.54,4.44,7.91-3.23,6.39-6.36,12.98-9.36,19.56-5.83,12.99-11.52,26.38-15.46,39.98-1.45,5.77-3.6,12.62-2.43,18.38,0,0-7.55-3.4-7.55-3.4,1.93-.86,3.64-1.54,5.47-2.25,47.73-18.22,107.95-21.62,148.44,14.35,5.91,5.15,11.18,10.98,15.91,17.16,2.66,3.63.26,8.73-4.26,8.82-10.18.31-20.57,1.84-30.32,4.69-13.2,3.87-27.96,11.52-31.13,25.91-2.98,14.58,4.12,28.71,11.63,41.44,1.62,2.52.88,5.88-1.64,7.5-1.11.76-2.48.84-3.74,1.09-22.04,4.53-44.19,17.62-53.01,39-6.26,14.38-5.61,30.73-3.4,46.07,3.59,24.96,10.5,49.08,16.29,73.9,8.03,33.52,14.38,67.87,15.83,102.52,2,43.62-3.36,87.64-15.62,129.55-20.69,66.95-60.94,127.54-114.02,173.19-59.54,51.47-134.61,82.43-211.56,96.03-7.93,1.48-20.81,3.33-28.74,4.45-61.47,7.68-123.92,51.72-121.21,119,2.21,33.88,10.82,67.04,12.38,101.34.76,18.19-.48,37.09-8.39,54.19-8.33,17.88-24.7,33.33-44.85,35.71-38.38,4.49-76-25.47-85.47-61.86-7.57-28.47,4.07-56.66,23.35-77.48,24.04-27.22,60.61-41.09,96.21-42.46,17.76-.79,35.6.63,52.87,4.87.68.13,165.7,65.65,166.41,65.88,2.82,1.12,4.21,4.31,3.09,7.14-1.11,2.8-4.26,4.18-7.06,3.12h0Z"/>
    <path class="cls-1" d="m1394.39,1001.62c-3-.09-4.71-1.44-7-2.72-5.86-3.18-12.37-3.25-18.47-.38-8.46,3.94-15,11.63-20.59,19.16-2.37,3.14-4.24,6.18-6.57,9.46-2.5,3.35-5.48,6.4-8.6,9.09-10.06,8.7-22.05,14.74-33.95,20.4-13.55,6.29-28.8,13.14-42.48,19.11-14.06,6.34-28.5,12.01-42.73,17.9-28.16,12.46-55.21,27.36-81.91,42.74-26.65,15.55-52.85,31.96-77.91,49.99-16.66,12.01-32.94,24.71-47.76,38.92-10.88,10.72-21.46,22.04-26.29,36.72-8.28,22.37-3.65,50.47,15.89,65.17,13.58,10.24,32.74,12.88,47.63,4.05,46.23-27.95,78-131.19,93.87-182.57,11.58-39.22,21.7-79.09,30.53-118.98,0,0,11.96,5.4,11.96,5.4-10.99,6-18.19,14.74-26.05,23.18-19.44,20.15-48.88,50.2-79.33,34.32-6.05-3.38-11.07-8.36-14.54-14.34-.2-.39-.66-1.18-.8-1.72-1.87-5.46-2.83-11.09-3.11-16.62-2.22-41.39,35.18-97.02,72.67-113.32,16.6-7.26,34.36-5.05,45.25,10.46,9.04,12.84,11.81,28.82,13.35,43.84.27,4.03-5.49,4.61-6.12.73-3.68-25.96-15.46-61.11-48.19-45.35-31.27,16.15-54.91,55.52-60.15,89.71-1.23,8.86-1.05,17.71,1.4,25.52,0,0-.35-.88-.35-.88-.05-.09,0,.02.04.11,7.18,13.48,21.33,15.94,35.25,11.29,5-1.58,9.93-3.92,14.72-6.63,9.53-5.53,18.34-12.68,26.4-20.55,8.2-7.93,16-16.82,18.96-28.17,4.19-5.51,12.97-1.84,12.02,4.97-.76,5.35-1.62,10.59-2.51,15.85-6.11,35.79-13.97,71.26-23.47,106.3-15.86,56.9-58.06,200.28-129.05,201.54-15.07.13-30.27-5.88-40.69-16.79-20.1-20.56-20.5-53.1-9.43-78,5.78-14.72,16.85-26.73,28.22-37.24,7.6-7.04,15.47-13.75,23.56-20.18,32.41-25.59,66.75-48.64,101.93-70.25,26.49-16.08,53.49-31.49,81.84-44.18,18.95-8.22,38.55-14.58,57.42-22.95,18.59-8,36.93-18.15,52.21-31.24,3.72-3.25,7.22-6.67,10.11-10.38,3.15-3.91,5.47-8.47,8.59-12.48,3.21-4.33,6.88-8.38,10.99-12.09,10.91-10.1,26.54-16.56,40.04-6.67,1.16.87,2.34,1.7,3.27,2.79,1.28,1.23,3.11,5.97-.06,5.97h0Z"/>
    <path class="cls-1" d="m1349.84,1013.28c-5.8,6.87-11.22,21.97-.32,26.4,2.95,1.03,6.45.33,9.68-.99,6.65-2.81,12.42-7.64,17.65-12.63,3.97-3.86,7.69-8.04,11.08-12.44,1.12-1.45,2.26-2.99,3.2-4.43,1.95-2.31,5.41-2.6,7.72-.65,1.68,1.42,2.3,3.65,1.75,5.64,0,0-.08.28-.08.28-.1.37-.27,1.01-.39,1.54-.91,3.98-1.49,8.08-1.68,12.15-.74,13.25,3.44,27.08,15.88,33.48,5.83,3.19,12.95,4.71,19.72,5.34,12.07,1.04,24.08-.3,35.9-3.55,38.69-11.04,72.26-35.12,102.75-60.86,22.9-19.94,44.79-41.34,62.04-66.47,14.29-20.73,27.43-42.7,35.94-66.45,2.22-7.16,6.85-19.94,1.52-25.87-9.52-6.2-25.15,6.39-32.21,13.02-51.77,51.59-77.7,141.21-72.7,213.19.83,10.12,2.36,24.01,10.88,30.1,18.23,11.14,58.68-24.26,72.97-36.14,15.04-13.08,30.46-27.42,44.65-41.48,7.1-7.34,14.31-14.55,21.65-21.86,5.83-5.46,12.01-11.26,20.4-12.87,2.29-.56,6.22-.82,8.11,1.57.72.86,1.05,1.78,1.23,2.6.44.84-.06,1.54-.63,2.12-6.08,7.08-11.99,14.31-17.15,21.68-5.49,8.27-11.77,17.51-11.76,27.41.07,4.12.47,8.14,2.97,11.72,2.74,4.19,6.59,8.35,11.82,8.87,20.14,1.27,37.51-30.13,41.73-47.11.7-3.08,1.39-6.4.67-9.37-2.42-8.87-12.07-17.45-21.41-13.57-12.12,5.79-8.27,25.77-3.64,35.63,1.96,3.99,4.79,7.52,8.16,10.43,33.96,27.8,110.06,9.67,144.53-11.49,7.96-4.7,15.22-10.52,22.52-16.17,9.07-7.22,17.99-14.67,25.35-23.6,3.67-4.44,10.28-13.71,8.64-19-1.52-2.44-4.45-3.35-7.37-3.74-4.07-.49-8.4.3-12.15,1.99-12.3,5.49-15.08,18.56-12.54,30.76,2.04,10.81,7.16,20.95,12.05,30.8,9.08,19.34,20.24,49.52,3.38,67.94-8.36,8.64-24.35,12.51-33.93,3.92-4.91-3.99-8.14-12.02-4.39-17.88,3.21-5.02,7.99-6.82,12.99-8.95,17.7-6.97,36.16-10.93,54.55-15.28,26.97-6.61,55.44-10.55,79.47-24.76,7.4-4.58,14-10.96,16.67-19.26.56-1.74,2.43-2.7,4.17-2.14,1.74.56,2.7,2.43,2.14,4.17-1.75,4.95-4.69,9.4-8.21,13.06-10.39,10.52-24.67,15.88-38.28,20.18-18.1,5.51-36.64,8.95-55.13,12.59-7.65,1.49-71.94,13.28-61.43,26.73,5.48,6.01,16.37,3.72,21.01-1.95,8.8-11.3.73-33.33-4.03-45.92-3.48-8.92-8.02-17.34-10.55-26.67-6.17-20.47-3.6-46.14,19.62-53.87,8.41-2.65,20.89-2.71,26.14,5.52,6.56,13.35-24.94,41.71-34.61,49.71-7.36,6.06-14.89,11.93-23.14,16.73-16.52,9.62-34.61,16.16-53.19,20.38-32.72,7.67-96.83,11.54-108.29-29.52-1.96-7.08-3.15-14.41-1.37-21.8,2.64-11.54,14.27-16.71,24.61-10.87,6.46,3.62,11.89,11.42,12,18.79-.25,7.43-2.85,14.39-5.67,21.09-6.02,13.14-14.05,26.03-26.56,33.94-6.78,4.33-15.03,5.06-22.86,2.6-3.87-1.23-7.6-3.06-10.86-5.47-3.79-2.52-7.1-5.43-9.23-9.79-5.27-10.91.82-23.96,7.08-32.7,8.86-11.99,20.3-21.48,33.15-28.77,0,0-.63,2.12-.63,2.12-.23-.38-.51-.62-.71-.66-3.06.51-5.33,3.73-7.87,5.76-3.68,3.03-7.56,6.14-11.47,9.28-11.78,9.43-23.15,19.82-33.94,30.5-22.82,21.57-75.97,79.49-108.06,74.61-27.48-4.73-26.15-43.77-26.5-65.18.47-69.24,26.72-150.09,77.38-198.87,8.38-7.39,17.15-14.25,28.71-16.67,8.97-1.86,18.83,1.69,20.43,11.62,2.65,20.81-16.16,51.46-26.76,69.15-16.08,26.21-34.58,50.88-56.47,72.53-42.28,42.39-108.99,102.18-173.3,91.92-26-4.34-39.77-23.52-37.9-49.6.39-5.6,1.25-11.01,2.93-16.39,0,0,9.39,5.27,9.39,5.27-5.84,5.13-11.99,10.21-18.22,14.8-6.38,4.6-12.91,9.04-20.49,11.61-15.64,5.26-24.06-6.24-20.57-21.49.85-4.11,1.92-7.97,3.38-11.94,2.61-5.51,10-.68,6.32,3.87h0Z"/>
  </g>
</svg>