<svg width="2694" height="2695" viewBox="0 0 2694 2695" fill="none" xmlns="http://www.w3.org/2000/svg">
<rect width="2694" height="2695" rx="1347" fill="#111111"/>
<path d="M1374.64 1833.14C1375.25 1832.93 1168.04 1755.38 1172.07 1756.49C1170.45 1756.05 1166.81 1755.37 1165.04 1755.02C1128.75 1748.65 1089.45 1750.33 1055.51 1765.01C1014.7 1782.4 972.634 1828.49 985.423 1875.58C994.782 1910.14 1031.12 1939.25 1067.34 1935.14C1084.88 1932.83 1098.08 1918.84 1105.26 1903.42C1113.02 1886.22 1114.02 1866.52 1113.1 1847.48C1110.86 1806.28 1100.02 1765.6 1097.17 1724.03C1095.01 1690.13 1106.56 1655.8 1126.87 1629.04C1157.04 1588.85 1204.07 1564.69 1252.53 1555.44C1261.93 1553.77 1274.19 1551.95 1283.68 1550.58C1308.61 1546.45 1334 1541.16 1358.21 1534.12C1497.23 1495.5 1613.15 1400.29 1666.04 1264.57C1687.88 1208.08 1696.46 1146.81 1694.63 1086.41C1693.29 1045.52 1686.53 1005.39 1677.84 965.334C1671.43 934.858 1663.51 903.955 1660.07 872.552C1655.73 837.915 1661.1 803.143 1688.55 778.904C1705.01 764.356 1725.56 756.007 1747 752.883C1747.74 752.785 1748.36 752.712 1749.26 752.627L1744.28 762.818C1704.67 699.364 1737.77 661.566 1805.93 655.048C1809.39 654.768 1812.73 654.462 1816.31 654.426L1811.02 665.191C1784.32 628.893 1741.01 613.259 1696.88 615.944C1679.28 616.774 1661.77 619.971 1644.83 624.853C1638.47 626.696 1632.18 628.783 1626.02 631.151C1623.92 631.981 1621.81 632.811 1619.94 633.653C1616.3 635.313 1611.96 633.263 1610.88 629.43C1609.42 623.438 1609.76 618.763 1610.63 613.198C1612.98 599.394 1617.77 586.408 1622.75 573.593C1629.43 556.787 1636.86 540.566 1644.98 524.395L1650.35 534.134C1635.44 532.792 1620.66 536.27 1607.32 543.08C1579.84 557.311 1558.85 582.136 1541.75 607.742C1533.16 620.838 1525.17 634.8 1518.7 649.031C1515.83 661.224 1445.68 643.869 1434.34 641.318C1425.86 639.28 1417.45 637.168 1408.97 634.874L1417.3 627.001C1439.66 735.784 1495.89 853.891 1617.75 870.599C1673.68 878.606 1731.05 865.742 1782.68 843.932C1792.99 839.501 1803.27 834.692 1813.01 829.212L1811.68 839.782C1741.33 768.212 1640.6 728.729 1540.27 737.261C1507.26 739.775 1474.16 746.048 1443.24 758.009C1190.72 841.332 1093.61 1131.69 1051.83 1370.23C1045.32 1408.12 1040.42 1446.16 1035.9 1484.37C1034.21 1497.87 1032.35 1510.8 1027.01 1523.7C1020.75 1538.67 1010.01 1544.42 993.72 1542.96C985.471 1542.47 977.088 1541.81 968.937 1540.23C901.567 1528.81 866.607 1477.77 859.578 1412.66C856.808 1388.06 857.516 1363.26 861.189 1338.84C861.458 1337.18 861.714 1335.62 862.056 1333.81C862.056 1333.81 875.149 1336.84 875.112 1336.88C861.384 1394.43 824.692 1437.05 762.569 1439.45C729.573 1440.56 697.029 1432.2 667.719 1417.2C641.593 1399.98 617.31 1378.52 602.057 1350.62C568.354 1289.5 596.225 1224.75 634.931 1174C712.563 1079.43 853.013 1043.96 970.755 1061.96C995.014 1065.99 1054.27 1079.68 1042.3 1114.71C1040.02 1120.2 1036.9 1123.56 1033.04 1127.16C1026.31 1133.47 1019.03 1139.22 1011.38 1144.37C967.912 1173.94 912.073 1182.32 861.214 1171.19C830.842 1164.84 802.288 1152.58 775.821 1136.81C750.708 1121.2 725.315 1105.08 699.665 1090.42C551.124 1004.93 307.953 895.448 152.872 1014.36C134.605 1029.12 118.62 1046.79 107.65 1067.37C106.612 1069.37 105.636 1071.38 104.794 1073.36C103.964 1075.29 103.22 1077.36 102.891 1078.74C102.817 1079.03 102.769 1079.34 102.793 1079.21C102.793 1079.13 102.83 1078.99 102.793 1078.29C102.756 1077.9 102.732 1077.44 102.415 1076.34C102.073 1075.51 101.512 1073.21 98.217 1071.03C93.0065 1068.77 96.3988 1070.3 95.5203 1069.86L95.7765 1069.89C98.4977 1070.37 101.414 1070.52 104.428 1070.71C128.857 1071.76 153.421 1071.19 178.046 1070.71C197.814 1070.26 217.63 1069.64 237.374 1068.82C247.917 1068.4 252.859 1081.6 245.098 1088.25C237.594 1094.28 229.918 1103.41 223.695 1111.5C189.943 1156.08 161.218 1204.6 132.53 1252.66C121.109 1272.07 109.809 1291.62 98.7905 1311.22L87.6863 1303.79C109.492 1277.24 148.65 1259.48 179.486 1245.62C204.11 1234.98 229.162 1225.73 254.567 1217.28C263.182 1214.45 271.468 1211.78 280.229 1209.2C289.82 1206.21 299.192 1215.57 296.434 1225.08C284.219 1263.07 275.556 1302.64 272.115 1342.37C269.101 1380.37 270.37 1421.37 288.112 1455.28L279.18 1449.83C279.521 1449.86 280.156 1449.88 280.668 1449.91L282.328 1449.95C336.117 1450.23 392.785 1433.79 430.966 1394.34C444.035 1380.85 454.383 1365 462.034 1347.81C462.729 1346.27 464.535 1345.58 466.073 1346.27C467.549 1346.93 468.233 1348.63 467.684 1350.13C454.322 1387.48 427.086 1419.1 392.785 1438.93C359.387 1458.38 321.071 1468.73 282.596 1470.89L280.656 1470.96C279.973 1470.97 279.399 1471 278.545 1471C274.677 1470.91 271.346 1468.73 269.613 1465.55C231.602 1397.51 249.808 1289.53 270.967 1217.83L286.855 1234.85C282.792 1235.78 278.496 1236.82 274.299 1237.87C228.21 1249.7 181.926 1263.4 139.095 1284.17C131.444 1288.01 123.94 1292.11 116.911 1296.71C109.919 1301.31 103.281 1306.41 98.0584 1312.27C95.6789 1315.13 91.4446 1315.5 88.6015 1313.12C86.1244 1311.06 85.5142 1307.57 86.9663 1304.84C118.632 1244.57 150.968 1184.88 187.478 1127.31C196.898 1112.81 206.465 1098.31 217.594 1084.82C221.486 1080.22 225.428 1075.67 230.919 1071.15L238.131 1091.02C193.103 1091.76 148.357 1093.36 103.244 1091.53C99.2664 1091.26 94.9956 1091 90.8955 1090.12C89.7241 1089.6 92.7869 1091.13 87.308 1088.71C83.7449 1086.36 83.0249 1083.76 82.61 1082.65C82.183 1081.26 82.1219 1080.47 82.0609 1079.78C81.9755 1078.46 82.0609 1077.69 82.1219 1077.01C82.2684 1075.64 82.488 1074.73 82.6955 1073.82C84.355 1067.68 86.5514 1063.03 89.2848 1057.74C111.884 1016.17 150.59 985.24 193.335 966.53C325.964 911.046 479.337 961.184 603.082 1018.23C657.396 1043.71 709.647 1073.08 760.494 1104.77C765.034 1107.68 775.101 1113.93 779.384 1116.66C837.004 1153.45 911.451 1171.04 975.624 1141.29C990.487 1134.53 1004.32 1125.56 1016.42 1114.6C1017.97 1113.15 1019.65 1111.63 1021.13 1110.1C1022.49 1108.42 1023.51 1107.3 1023.29 1105.74C1022.49 1103.41 1020.63 1101.82 1018.42 1100.05C1015.44 1097.78 1011.66 1095.71 1007.63 1093.91C986.082 1084.73 962.116 1081.54 938.736 1079.84C835.857 1074.29 724.241 1105.41 654.76 1184.77C612.222 1238.86 585.413 1304.73 635.87 1363.51C646.291 1377.03 666.255 1392.44 677.554 1400.37C694.625 1409.45 713.844 1415.89 732.953 1419.34C800.665 1431.49 844.24 1397.85 862.141 1333.4C863.117 1329.8 866.851 1327.67 870.439 1328.69C873.819 1329.64 875.857 1333.04 875.21 1336.42C874.941 1337.78 874.673 1339.38 874.441 1340.89C873.721 1345.52 873.148 1350.17 872.684 1354.84C870.866 1373.5 870.768 1392.49 872.903 1411.08C877.662 1455.61 897.687 1499.18 940.664 1517.78C956.1 1524.65 972.854 1528.07 989.681 1529.24C1001.87 1529.93 1009.38 1531.32 1014.68 1518.3C1019.21 1507.39 1021.11 1494.58 1022.57 1482.69C1024.12 1469.99 1025.62 1457.19 1027.25 1444.43C1062.22 1177.59 1158.93 836.596 1441.2 744.327C1537.66 709.58 1649.49 716.646 1738.96 767.651C1769.13 784.616 1796.61 806.035 1821.13 830.225C1823.76 832.813 1823.78 837.036 1821.19 839.66C1818.3 842.003 1814.93 843.297 1811.85 845.042C1809.22 846.397 1806.6 847.703 1803.95 848.972C1631.4 928.963 1484.82 882.707 1422.58 697.192C1415.02 675.077 1409.04 652.51 1404.17 629.76C1402.98 625.036 1407.87 620.435 1412.51 621.888C1429.01 626.318 1445.82 630.37 1462.56 633.824C1470.95 635.533 1479.34 637.083 1487.7 638.267C1495.49 639.121 1504.16 640.512 1511.56 639.499L1506.47 643.441C1509.98 635.704 1513.64 628.673 1517.73 621.351C1529.88 599.809 1543.95 579.463 1561.27 561.546C1581.5 540.578 1608.3 522.332 1638.46 520.562C1642.82 520.306 1647.2 520.367 1651.54 520.733C1656.13 521.063 1659.15 526.274 1656.96 530.387C1653.02 538.186 1649.2 546.229 1645.54 554.26C1638.43 570.114 1631.48 586.457 1626.67 603.055C1624.91 610.098 1622.28 618.458 1623.71 625.488L1614.5 621.338C1616.85 620.289 1618.94 619.459 1621.17 618.592C1679.41 596.355 1752.9 592.205 1802.31 636.106C1809.52 642.392 1815.95 649.507 1821.72 657.05C1824.97 661.48 1822.04 667.705 1816.52 667.815C1804.1 668.193 1791.42 670.06 1779.52 673.539C1763.42 678.262 1745.4 687.599 1741.54 705.162C1737.9 722.956 1746.56 740.202 1755.73 755.739C1757.71 758.814 1756.8 762.915 1753.73 764.893C1752.37 765.82 1750.7 765.918 1749.16 766.223C1722.27 771.752 1695.24 787.728 1684.48 813.822C1676.84 831.373 1677.63 851.328 1680.33 870.05C1684.71 900.514 1693.14 929.952 1700.21 960.244C1710.01 1001.16 1717.75 1043.08 1719.52 1085.37C1721.96 1138.61 1715.42 1192.33 1700.46 1243.48C1675.22 1325.2 1626.1 1399.15 1561.33 1454.86C1488.68 1517.68 1397.07 1555.47 1303.18 1572.06C1293.5 1573.87 1277.78 1576.13 1268.11 1577.5C1193.1 1586.87 1116.89 1640.62 1120.2 1722.73C1122.9 1764.08 1133.4 1804.56 1135.31 1846.42C1136.23 1868.62 1134.72 1891.69 1125.07 1912.56C1114.9 1934.38 1094.93 1953.24 1070.34 1956.14C1023.51 1961.62 977.601 1925.05 966.045 1880.64C956.808 1845.89 971.011 1811.49 994.538 1786.08C1023.87 1752.86 1068.5 1735.93 1111.94 1734.26C1133.61 1733.29 1155.38 1735.02 1176.45 1740.2C1177.28 1740.36 1378.65 1820.32 1379.51 1820.61C1382.95 1821.97 1384.65 1825.87 1383.28 1829.32C1381.93 1832.74 1378.09 1834.42 1374.67 1833.13L1374.64 1833.14Z" fill="#D8D8D8"/>
<path d="M1783.49 1742.91C1779.83 1742.8 1777.74 1741.15 1774.95 1739.59C1767.8 1735.71 1759.85 1735.62 1752.41 1739.13C1742.09 1743.93 1734.11 1753.32 1727.28 1762.51C1724.39 1766.34 1722.11 1770.05 1719.27 1774.06C1716.22 1778.14 1712.58 1781.87 1708.77 1785.15C1696.5 1795.77 1681.87 1803.14 1667.35 1810.05C1650.81 1817.72 1632.2 1826.09 1615.51 1833.37C1598.35 1841.11 1580.73 1848.03 1563.37 1855.22C1529.01 1870.43 1496 1888.61 1463.42 1907.38C1430.9 1926.36 1398.93 1946.39 1368.35 1968.39C1348.02 1983.05 1328.15 1998.55 1310.07 2015.9C1296.79 2028.98 1283.88 2042.8 1277.99 2060.71C1267.89 2088.01 1273.54 2122.31 1297.38 2140.25C1313.95 2152.75 1337.33 2155.97 1355.5 2145.19C1411.91 2111.08 1450.68 1985.08 1470.04 1922.37C1484.17 1874.5 1496.52 1825.84 1507.3 1777.16L1521.89 1783.75C1508.48 1791.07 1499.7 1801.74 1490.1 1812.04C1466.38 1836.63 1430.46 1873.31 1393.3 1853.92C1385.92 1849.8 1379.79 1843.72 1375.56 1836.42C1375.32 1835.95 1374.75 1834.98 1374.58 1834.32C1372.3 1827.66 1371.13 1820.79 1370.79 1814.04C1368.08 1763.52 1413.72 1695.63 1459.46 1675.73C1479.72 1666.87 1501.39 1669.57 1514.68 1688.5C1525.71 1704.17 1529.09 1723.67 1530.97 1742.01C1531.3 1746.92 1524.27 1747.63 1523.5 1742.9C1519.01 1711.21 1504.64 1668.31 1464.7 1687.55C1426.54 1707.26 1397.7 1755.31 1391.3 1797.04C1389.8 1807.85 1390.02 1818.65 1393.01 1828.18L1392.58 1827.11C1392.52 1827 1392.58 1827.13 1392.63 1827.24C1401.39 1843.7 1418.66 1846.7 1435.65 1841.02C1441.75 1839.1 1447.76 1836.24 1453.61 1832.93C1465.24 1826.18 1475.99 1817.46 1485.82 1807.85C1495.83 1798.17 1505.35 1787.32 1508.96 1773.47C1514.07 1766.75 1524.78 1771.22 1523.63 1779.54C1522.7 1786.07 1521.65 1792.46 1520.56 1798.88C1513.11 1842.56 1503.52 1885.85 1491.92 1928.62C1472.57 1998.06 1421.08 2173.06 1334.45 2174.6C1316.06 2174.76 1297.51 2167.42 1284.8 2154.1C1260.27 2129.01 1259.78 2089.3 1273.29 2058.91C1280.34 2040.94 1293.85 2026.28 1307.73 2013.46C1317 2004.86 1326.6 1996.67 1336.48 1988.83C1376.02 1957.59 1417.93 1929.46 1460.86 1903.09C1493.18 1883.46 1526.13 1864.65 1560.72 1849.16C1583.84 1839.13 1607.76 1831.37 1630.79 1821.15C1653.47 1811.39 1675.85 1799 1694.5 1783.03C1699.04 1779.06 1703.31 1774.89 1706.83 1770.36C1710.68 1765.59 1713.51 1760.02 1717.32 1755.13C1721.23 1749.84 1725.71 1744.9 1730.73 1740.37C1744.04 1728.04 1763.11 1720.16 1779.58 1732.23C1781 1733.29 1782.44 1734.3 1783.57 1735.63C1785.14 1737.14 1787.37 1742.92 1783.5 1742.92L1783.49 1742.91Z" fill="#D8D8D8"/>
<path d="M1729.13 1757.14C1722.05 1765.52 1715.44 1783.95 1728.74 1789.36C1732.34 1790.62 1736.61 1789.76 1740.55 1788.15C1748.66 1784.72 1755.7 1778.83 1762.09 1772.74C1766.93 1768.03 1771.47 1762.92 1775.61 1757.55C1776.97 1755.78 1778.36 1753.91 1779.51 1752.15C1781.89 1749.33 1786.11 1748.97 1788.93 1751.35C1790.98 1753.09 1791.74 1755.81 1791.07 1758.24L1790.97 1758.58C1790.85 1759.03 1790.64 1759.81 1790.49 1760.46C1789.38 1765.32 1788.67 1770.32 1788.44 1775.29C1787.54 1791.46 1792.64 1808.34 1807.82 1816.15C1814.93 1820.04 1823.62 1821.9 1831.88 1822.67C1846.61 1823.94 1861.27 1822.3 1875.69 1818.34C1922.9 1804.86 1963.87 1775.47 2001.07 1744.06C2029.01 1719.72 2055.73 1693.6 2076.78 1662.93C2094.21 1637.63 2110.25 1610.81 2120.63 1581.83C2123.34 1573.09 2128.99 1557.49 2122.49 1550.25C2110.87 1542.69 2091.8 1558.05 2083.18 1566.14C2020.01 1629.11 1988.37 1738.49 1994.47 1826.34C1995.48 1838.69 1997.35 1855.65 2007.75 1863.08C2029.99 1876.67 2079.35 1833.47 2096.79 1818.97C2115.14 1803.01 2133.96 1785.5 2151.27 1768.34C2159.94 1759.39 2168.73 1750.59 2177.69 1741.66C2184.8 1735 2192.34 1727.92 2202.58 1725.96C2205.38 1725.27 2210.17 1724.96 2212.48 1727.87C2213.36 1728.92 2213.76 1730.04 2213.98 1731.05C2214.52 1732.07 2213.91 1732.93 2213.21 1733.63C2205.79 1742.27 2198.58 1751.1 2192.28 1760.09C2185.58 1770.19 2177.92 1781.46 2177.93 1793.55C2178.02 1798.58 2178.51 1803.48 2181.56 1807.85C2184.9 1812.96 2189.6 1818.04 2195.98 1818.68C2220.56 1820.23 2241.75 1781.9 2246.9 1761.18C2247.76 1757.42 2248.6 1753.37 2247.72 1749.74C2244.77 1738.92 2232.99 1728.45 2221.59 1733.18C2206.8 1740.25 2211.5 1764.63 2217.15 1776.67C2219.54 1781.54 2223 1785.85 2227.11 1789.4C2268.55 1823.33 2361.41 1801.2 2403.47 1775.37C2413.19 1769.64 2422.04 1762.53 2430.95 1755.64C2442.02 1746.83 2452.9 1737.73 2461.89 1726.83C2466.36 1721.42 2474.43 1710.1 2472.43 1703.65C2470.57 1700.67 2467 1699.56 2463.44 1699.08C2458.47 1698.48 2453.18 1699.45 2448.61 1701.51C2433.6 1708.21 2430.21 1724.16 2433.31 1739.05C2435.8 1752.25 2442.04 1764.62 2448.01 1776.64C2459.09 1800.25 2472.71 1837.08 2452.14 1859.56C2441.93 1870.11 2422.42 1874.83 2410.73 1864.35C2404.74 1859.48 2400.8 1849.68 2405.38 1842.53C2409.29 1836.4 2415.13 1834.2 2421.23 1831.6C2442.83 1823.1 2465.35 1818.26 2487.79 1812.95C2520.7 1804.89 2555.44 1800.08 2584.76 1782.73C2593.79 1777.14 2601.85 1769.36 2605.11 1759.23C2605.79 1757.1 2608.07 1755.93 2610.19 1756.61C2612.32 1757.3 2613.49 1759.58 2612.81 1761.7C2610.67 1767.75 2607.08 1773.18 2602.79 1777.64C2590.11 1790.48 2572.68 1797.03 2556.08 1802.27C2533.99 1809 2511.37 1813.2 2488.8 1817.64C2479.47 1819.46 2401.02 1833.85 2413.84 1850.26C2420.53 1857.6 2433.82 1854.8 2439.48 1847.88C2450.22 1834.09 2440.37 1807.2 2434.56 1791.84C2430.32 1780.95 2424.78 1770.67 2421.69 1759.29C2414.16 1734.3 2417.3 1702.97 2445.63 1693.54C2455.89 1690.31 2471.12 1690.23 2477.53 1700.28C2485.53 1716.57 2447.1 1751.18 2435.3 1760.95C2426.32 1768.34 2417.13 1775.51 2407.06 1781.37C2386.9 1793.11 2364.83 1801.09 2342.15 1806.24C2302.23 1815.6 2224 1820.32 2210.01 1770.21C2207.62 1761.57 2206.17 1752.62 2208.34 1743.6C2211.56 1729.52 2225.76 1723.21 2238.37 1730.34C2246.26 1734.76 2252.88 1744.28 2253.02 1753.27C2252.71 1762.34 2249.54 1770.83 2246.1 1779.01C2238.75 1795.05 2228.95 1810.78 2213.69 1820.43C2205.41 1825.72 2195.35 1826.61 2185.79 1823.61C2181.07 1822.11 2176.52 1819.87 2172.54 1816.93C2167.92 1813.86 2163.88 1810.3 2161.28 1804.98C2154.85 1791.67 2162.28 1775.74 2169.92 1765.07C2180.73 1750.44 2194.69 1738.86 2210.37 1729.96L2209.6 1732.55C2209.32 1732.08 2208.98 1731.79 2208.73 1731.74C2205 1732.36 2202.23 1736.29 2199.13 1738.77C2194.64 1742.47 2189.9 1746.27 2185.13 1750.1C2170.76 1761.61 2156.88 1774.29 2143.72 1787.32C2115.87 1813.65 2051.02 1884.34 2011.86 1878.38C1978.33 1872.61 1979.95 1824.96 1979.52 1798.83C1980.09 1714.32 2012.13 1615.65 2073.94 1556.11C2084.17 1547.09 2094.87 1538.72 2108.98 1535.77C2119.92 1533.5 2131.95 1537.83 2133.91 1549.95C2137.14 1575.35 2114.19 1612.76 2101.25 1634.35C2081.63 1666.34 2059.06 1696.44 2032.35 1722.87C1980.75 1774.6 1899.35 1847.58 1820.88 1835.06C1789.15 1829.76 1772.35 1806.35 1774.63 1774.52C1775.11 1767.68 1776.16 1761.08 1778.21 1754.52L1789.66 1760.95C1782.54 1767.21 1775.03 1773.41 1767.43 1779.01C1759.64 1784.63 1751.68 1790.04 1742.43 1793.18C1723.34 1799.6 1713.07 1785.56 1717.33 1766.95C1718.36 1761.94 1719.67 1757.23 1721.45 1752.38C1724.64 1745.65 1733.65 1751.55 1729.16 1757.1L1729.13 1757.14Z" fill="#D8D8D8"/>
</svg>
