<svg width="86" height="98" viewBox="0 0 86 98" fill="none" xmlns="http://www.w3.org/2000/svg">
<path d="M7.72692 86.6923L0 0H84.9962L77.2692 86.6923L42.4038 96.4923" fill="#0C73B8"/>
<path d="M42.5923 88.9538L70.6731 81.2269L77.2692 6.97302H42.5923" fill="#30A9DC"/>
<path d="M42.5923 39.1999H17.7154L18.6577 49.9423H42.5923V39.1999ZM42.5923 17.7153H15.8308L16.7731 28.2692H42.5923V17.7153ZM42.5923 66.9038L19.2231 60.6846L20.5423 71.9923L42.5923 78.023V66.9038Z" fill="#ECEDEE"/>
<path d="M42.5923 49.9423H55.5962L54.2769 63.6999L42.5923 66.9038V78.023L64.2654 71.9923L69.1654 17.7153H42.5923V28.2692H57.6692L56.5385 39.1999H42.5923V49.9423Z" fill="white"/>
</svg>
