<svg width="98" height="98" viewBox="0 0 98 98" fill="none" xmlns="http://www.w3.org/2000/svg">
<path d="M13.5898 88.0469L5.74219 0H92.0664L84.2188 88.0469L48.8086 98" fill="#E34F26"/>
<path d="M49 90.3438L77.5195 82.4961L84.2188 7.08203H49" fill="#EF652A"/>
<path d="M49 39.8125H34.6445L33.6875 28.7109H49V17.9922H48.8086H21.8203L22.0117 20.8633L24.6914 50.7227H49V39.8125ZM49 67.9492H48.8086L36.75 64.6953L35.9844 56.082H30.2422H25.2656L26.6055 73.1172L48.8086 79.2422H49V67.9492Z" fill="#EBEBEB"/>
<path d="M48.8086 39.8125V50.7227H62.207L60.8672 64.6953L48.8086 67.9492V79.2422L71.0117 73.1172L71.2031 71.2031L73.6914 42.6836L74.0742 39.8125H71.0117H48.8086ZM48.8086 17.9922V24.6914V28.7109H75.0312L75.2227 26.4141L75.7969 20.8633L75.9883 17.9922H48.8086Z" fill="white"/>
</svg>
