<svg width="98" height="98" viewBox="0 0 98 98" fill="none" xmlns="http://www.w3.org/2000/svg">
<g clip-path="url(#clip0_30_29)">
<path d="M98 0H0V98H98V0Z" fill="#F7DF1E"/>
<path d="M65.8311 76.5629C67.8051 79.786 70.3733 82.1551 74.9156 82.1551C78.7313 82.1551 81.1689 80.248 81.1689 77.6129C81.1689 74.4551 78.6645 73.3367 74.4645 71.4996L72.1622 70.5118C65.5169 67.6807 61.1022 64.134 61.1022 56.6362C61.1022 49.7296 66.3647 44.4718 74.5889 44.4718C80.444 44.4718 84.6533 46.5096 87.6867 51.8451L80.5156 56.4496C78.9367 53.6185 77.2333 52.5031 74.5889 52.5031C71.8916 52.5031 70.182 54.2142 70.182 56.4496C70.182 59.2122 71.8931 60.3307 75.8442 62.0418L78.1464 63.028C85.9709 66.3834 90.3887 69.804 90.3887 77.4947C90.3887 85.7858 83.8756 90.328 75.1287 90.328C66.5762 90.328 61.0509 86.2525 58.3473 80.9107L65.8311 76.5629ZM33.2998 77.3609C34.7464 79.9276 36.0624 82.0976 39.2264 82.0976C42.252 82.0976 44.1607 80.9138 44.1607 76.3109V44.9976H53.3696V76.4354C53.3696 85.9709 47.7789 90.3109 39.6184 90.3109C32.2451 90.3109 27.9751 86.4951 25.8036 81.8992L33.2998 77.3609Z" fill="black"/>
</g>
<defs>
<clipPath id="clip0_30_29">
<rect width="98" height="98" fill="white"/>
</clipPath>
</defs>
</svg>
