<svg width="100%" height="100%" viewBox="0 0 39 39" fill="none" xmlns="http://www.w3.org/2000/svg">
<g clip-path="url(#clip0_32_19)">
<path fill-rule="evenodd" clip-rule="evenodd" d="M28.6401 9.75H25.5944C24.9208 9.75 24.3757 10.2951 24.3757 10.9688V13.4066C24.3757 14.079 24.9208 14.6241 25.5944 14.6241H29.0954C30.8211 14.6241 31.9447 16.0972 31.6138 17.8625L30.9294 21.5125C30.6301 23.1128 29.1144 24.3755 27.5362 24.3755H25.5944C24.9208 24.3755 24.3757 24.9206 24.3757 25.5931V35.9536C24.3757 37.6359 23.0105 38.9992 21.3282 38.9992C21.305 39.001 19.3156 38.9992 18.2813 38.9992C17.6089 38.9992 17.062 38.4542 17.062 37.7805C17.062 37.108 17.6089 36.5617 18.2813 36.5617H20.7188C21.3925 36.5617 21.9376 36.0167 21.9376 35.3442V24.9849C21.9376 23.3014 23.3015 21.9374 24.9851 21.9374H27.1875C27.8219 21.9374 28.4711 21.431 28.6401 20.7925L29.2863 18.3586C29.475 17.6495 29.0721 17.0619 28.3835 17.0619H24.985C23.3014 17.0619 21.9375 15.6983 21.9375 14.0148V10.3594C21.9375 8.67582 23.3014 7.31227 24.985 7.31227H28.0306C28.7043 7.31227 29.2494 6.76688 29.2494 6.09322V3.65534C29.2494 2.9832 28.7043 2.4378 28.0306 2.4378H23.1569C19.791 2.4378 17.0619 5.16544 17.0619 8.53095V14.0147C17.0619 15.6982 15.6986 17.0618 14.0162 17.0618H12.2167C11.5282 17.0618 10.9687 17.6495 10.9687 18.3585V20.7924C10.9687 21.431 11.4829 21.9373 12.1167 21.9373H14.0162C15.6986 21.9373 17.0619 23.3013 17.0619 24.9848V28.0304C17.0619 28.7041 16.5168 29.2498 15.8444 29.2498C15.1707 29.2498 14.6256 28.7041 14.6256 28.0304V25.593C14.6256 24.9205 14.0793 24.3755 13.4069 24.3755H11.3883C9.8101 24.3755 8.53125 23.1127 8.53125 21.5125V17.8625C8.53125 16.0971 9.9303 14.624 11.656 14.624H13.4068C14.0792 14.624 14.6255 14.0789 14.6255 13.4065V7.92149C14.6257 3.54618 18.1718 0 22.547 0H28.6401C30.3236 0 31.6876 1.36363 31.6876 3.04596V6.70252C31.6876 8.38599 30.3236 9.75 28.6401 9.75ZM15.8444 31.6873C16.5169 31.6873 17.062 32.2324 17.062 32.9061C17.062 33.5785 16.5169 34.1255 15.8444 34.1255C15.1708 34.1255 14.6257 33.5785 14.6257 32.9061C14.6257 32.2324 15.1708 31.6873 15.8444 31.6873Z" fill="#3E3E3E"/>
</g>
<defs>
<clipPath id="clip0_32_19">
<rect width="39" height="39" fill="white"/>
</clipPath>
</defs>
</svg>
