<svg width="39" height="39" viewBox="0 0 39 39" fill="none" xmlns="http://www.w3.org/2000/svg">
<g clip-path="url(#clip0_32_17)">
<path fill-rule="evenodd" clip-rule="evenodd" d="M27.5023 24.6791L23.5597 23.9375C22.8881 23.8119 22.4408 23.1294 22.5591 22.4146C22.6773 21.6992 23.3165 21.2227 23.988 21.3482L28.2988 22.1587C29.7387 22.4512 30.69 23.84 30.4243 25.2939C30.4182 25.3268 30.4078 25.3561 30.4017 25.3884C30.2025 26.1032 29.8685 26.7577 29.3792 27.3207C26.5669 30.5535 19.8979 29.6223 14.4842 25.2391C9.06994 20.8577 6.96028 14.6841 9.77377 11.452C10.4429 10.6817 11.3338 10.1534 12.3721 9.84872C12.4593 9.82678 12.5434 9.7957 12.6305 9.78291C12.6305 9.78291 12.6317 9.78108 12.6336 9.78108C13.8066 9.6007 14.9766 10.2454 15.4452 11.3752L16.9802 15.4879C17.2075 16.096 16.8858 16.7688 16.2606 16.99C15.6372 17.2118 14.9474 16.8986 14.7201 16.2904L13.3094 12.5099C13.193 12.2606 12.9108 12.1302 12.6445 12.2204C12.2545 12.405 11.9145 12.6488 11.6415 12.9632C9.69455 15.2015 11.6677 19.8918 16.0509 23.4384C20.4342 26.985 25.5663 28.0471 27.5127 25.8095C27.6327 25.6705 27.7327 25.5212 27.8222 25.3652C27.8454 25.3214 27.8649 25.2757 27.8734 25.2239C27.9136 24.9704 27.7479 24.737 27.5023 24.6791ZM3.65625 25.5938C3.65625 26.2671 3.11086 26.8125 2.4375 26.8125C1.76414 26.8125 1.21875 26.2671 1.21875 25.5938C1.21875 24.9204 1.76414 24.375 2.4375 24.375C3.11086 24.375 3.65625 24.9204 3.65625 25.5938ZM19.5 39C16.4379 39 13.5452 38.2852 10.9675 37.0262C10.9279 37.0092 10.8895 36.9909 10.8524 36.9732C10.8152 36.9555 10.7768 36.9391 10.7396 36.9202C10.026 36.5625 9.18389 36.4546 8.35392 36.6807C8.33808 36.685 8.32162 36.688 8.30517 36.6923L4.76836 37.6746C4.75556 37.6777 4.74033 37.6777 4.72692 37.6825C4.26014 37.8111 3.75497 37.8203 3.25528 37.6825C1.77938 37.2773 0.912234 35.7533 1.31747 34.2773C1.326 34.2432 1.32905 34.2176 1.33636 34.1872L2.36986 30.4688H2.4375C2.4375 29.7954 2.98289 29.25 3.65625 29.25C4.32961 29.25 4.875 29.7954 4.875 30.4688H4.89998L4.86037 30.612C4.84575 30.7436 4.81163 30.8673 4.75739 30.9825L3.66356 34.9233C3.66356 34.9257 3.66783 34.9215 3.66783 34.9245C3.61908 35.1018 3.72511 35.2852 3.90244 35.3322C3.95545 35.3468 4.00908 35.3468 4.05722 35.337C4.06027 35.337 4.056 35.3431 4.05722 35.3431L7.68422 34.3352C7.69153 34.334 7.69641 34.334 7.70372 34.3328C9.13088 33.941 10.58 34.1183 11.8091 34.7295C11.8213 34.7356 11.8353 34.7374 11.8487 34.7417C14.1509 35.9007 16.7462 36.5625 19.5 36.5625C28.924 36.5625 36.5625 28.9234 36.5625 19.5C36.5625 10.0766 28.924 2.4375 19.5 2.4375C10.0766 2.4375 2.4375 10.0766 2.4375 19.5C2.4375 19.8577 2.45517 20.2124 2.47711 20.5634L2.42227 20.5682C2.42836 20.617 2.4375 20.667 2.4375 20.7188C2.4375 21.3921 1.89211 21.9375 1.21875 21.9375C0.545391 21.9375 0 21.3921 0 20.7188C0 20.6261 0.0121875 20.5353 0.0322969 20.45C0.0158437 20.1337 0 19.8187 0 19.5C0 8.73052 8.73052 0 19.5 0C30.2695 0 39 8.73052 39 19.5C39 30.2695 30.2695 39 19.5 39Z" fill="#3E3E3E"/>
</g>
<defs>
<clipPath id="clip0_32_17">
<rect width="39" height="39" fill="white"/>
</clipPath>
</defs>
</svg>
